<?xml version="1.0" encoding="utf-8"?><svg xmlns="http://www.w3.org/2000/svg" xmlns:xlink="http://www.w3.org/1999/xlink"><symbol id="arrow-left" viewBox="0 0 5.9 9.6"><style>.ast0{fill:#fff}</style><path class="ast0" d="M4.8 9.6l1.1-1.1-3.7-3.7 3.7-3.7L4.8 0 0 4.8l4.8 4.8z"/></symbol><symbol id="arrow-left-white" viewBox="0 0 5.9 9.6"><style>.bst0{fill:#fff}</style><path class="bst0" d="M1.1 0L0 1.1l3.7 3.7L0 8.5l1.1 1.1 4.8-4.8L1.1 0zm0 0"/></symbol><symbol id="arrow-right" viewBox="0 0 5.9 9.6"><style>.cst0{fill:#fff}</style><path class="cst0" d="M1.1 0L0 1.1l3.7 3.7L0 8.5l1.1 1.1 4.8-4.8L1.1 0zm0 0"/></symbol><symbol id="business-class" viewBox="0 0 384.2 115.4"><style>.dst0{clip-path:url(#dSVGID_2_)}</style><path d="M82.9 59.4c-15.4.1-27.7 12.7-27.5 28.1 0 1.2.1 2.3.3 3.5 1.9 13.7 13.6 24.2 27.8 24.1 14.6-.1 26.4-11.4 27.4-25.7.1-.8.1-1.6.1-2.4-.1-15.4-12.7-27.7-28.1-27.6zM80.7 70l.1 8c-.9.2-1.7.6-2.5 1l-5.7-5.6c2.3-1.8 5-3 8.1-3.4zm-11.5 6.9l5.7 5.6c-.4.8-.8 1.6-1 2.5l-8 .1c.4-3.1 1.6-5.9 3.3-8.2zM66 89.8l8.1-.1c.2.9.6 1.7 1 2.4l-5.6 5.7c-1.9-2.2-3.1-4.9-3.5-8zm6.9 11.5l5.6-5.7c.7.4 1.6.7 2.4 1l.1 8c-3-.5-5.8-1.6-8.1-3.3zm27.6-16.6l-8 .1c-.2-.9-.6-1.7-1-2.4l5.6-5.7c1.7 2.2 2.9 5 3.4 8zm-15-14.8c3 .4 5.8 1.5 8.2 3.3L88 78.9c-.8-.4-1.6-.8-2.5-1v-8zm.3 34.6l-.1-8c.8-.2 1.7-.5 2.4-1l5.7 5.6c-2.3 1.7-5 2.9-8 3.4zm11.4-6.9L91.5 92c.4-.7.8-1.6 1-2.4l8-.1c-.4 3-1.5 5.8-3.3 8.1zm0 0"/><defs><path id="dSVGID_1_" d="M0 0h384.2v115.4H0z"/></defs><clipPath id="dSVGID_2_"><use xlink:href="#dSVGID_1_" overflow="visible"/></clipPath><path class="dst0" d="M307.5 59.4c-15.4.1-27.7 12.7-27.5 28.1 0 1.2.1 2.3.3 3.5 1.9 13.7 13.6 24.2 27.8 24.1 14.6-.1 26.4-11.4 27.5-25.7.1-.8.1-1.6.1-2.4-.3-15.4-12.8-27.7-28.2-27.6zM305.2 70l.1 8c-.9.2-1.7.6-2.4 1l-5.7-5.6c2.2-1.8 5-3 8-3.4zm-11.5 6.9l5.7 5.6c-.4.8-.8 1.6-1 2.5l-8 .1c.5-3.1 1.6-5.9 3.3-8.2zm-3.2 12.9l8.1-.1c.2.9.6 1.7 1 2.4l-5.6 5.7c-1.8-2.2-3-4.9-3.5-8zm6.9 11.5l5.6-5.7c.7.4 1.6.7 2.4 1l.1 8c-3-.5-5.7-1.6-8.1-3.3zM325 84.7l-8 .1c-.2-.9-.6-1.7-1-2.4l5.6-5.7c1.8 2.2 3 5 3.4 8zm-15-14.8c3 .4 5.8 1.5 8.2 3.3l-5.6 5.7c-.8-.4-1.6-.8-2.5-1l-.1-8zm.3 34.6l-.1-8c.9-.2 1.7-.5 2.4-1l5.7 5.6c-2.2 1.7-5 2.9-8 3.4zm11.5-6.9L316 92c.4-.7.8-1.6 1-2.4l8-.1c-.4 3-1.5 5.8-3.2 8.1zm0 0"/><path class="dst0" d="M381.2 29.6c-.5-.6-1.1-.9-1.9-.9h-24.6c-1 0-1.8.6-2.2 1.5l-1.6 4S281.6 8.9 266.1 3.6C254.1-.6 221-.3 201.6.3c-9.6.3-19.2 2.3-28.1 5.8-16.4 6.5-43.8 17.8-57.9 25.3-33.5.7-64.9 8.3-71.9 11.7-7 3.4-22 16.8-22 16.8L3.8 69.6c-2.5 1.3-3.9 4-3.7 6.8l1 14.6c.2 3.3 2.7 6 6 6.4l43.3 6.5 3.5-.2c-2.1-3.6-3.5-7.7-4.1-12.1-.2-1.5-.3-2.9-.3-4.2-.2-18.6 14.8-33.9 33.4-34 18.8 0 33.9 15 34.1 33.4 0 1-.1 1.9-.1 2.9-.3 4.1-1.4 8-3.1 11.6L277 101c-1.3-2.9-2.2-6-2.7-9.2-.2-1.5-.3-2.9-.3-4.2-.2-18.6 14.8-33.9 33.4-34 18.8 0 33.9 15 34.1 33.4 0 1-.1 1.9-.1 2.9-.2 2.2-.5 4.3-1.1 6.3l1.5-.1 29.4-8.8c2.7-.8 4.6-3.1 5-5.9l2.6-21.9c.3-2.8-.2-5.5-1.6-7.9l-4.9-8.6 7.6-5.8c.5-.3.7-.8.9-1.4l1-4.1c0-.8-.1-1.5-.6-2.1zm-132 4.1l-74.4 2.2s0-9.2-11-10.3l17.6-10.4c6.3-3.8 13.5-5.7 20.9-5.6 13.4.1 35.7.4 48.8.9 2.3.1 4.5 1.4 5.6 3.4 1.2 2 1.2 4.5.1 6.6-3.8 6.7-7.6 13.2-7.6 13.2zm0 0"/></symbol><symbol id="cards" viewBox="0 0 280.8 205"><style>.est0{clip-path:url(#eSVGID_2_)}</style><defs><path id="eSVGID_1_" d="M0 0h280.8v205H0z"/></defs><clipPath id="eSVGID_2_"><use xlink:href="#eSVGID_1_" overflow="visible"/></clipPath><path class="est0" d="M249.9 0h-157C75.9 0 62 13.9 62 30.9v7.7c0 3.3 2.7 6 6 6s6-2.7 6-6v-7.7C74 20.5 82.5 12 92.9 12h157c10.4 0 18.9 8.5 18.9 18.9v22.5H30.9C13.9 53.4 0 67.3 0 84.3v89.3c0 17.1 13.9 30.9 30.9 30.9h157c17.1 0 30.9-13.9 30.9-30.9v-71.1h50v17.7c0 10.4-8.5 18.9-18.9 18.9H233c-3.3 0-6 2.7-6 6s2.7 6 6 6h16.9c17.1 0 30.9-13.9 30.9-30.9V30.9c0-17-13.8-30.9-30.9-30.9zm-15.6 90.6H221c.6-.3 1.1-.7 1.6-1.1l24-24h12.6l-24.1 24.1c-.3.3-.5.6-.8 1zM218 77.1c-1-4.3-3-8.3-5.6-11.7h17.4L218 77.1zm-11.2 96.6c0 10.4-8.5 18.9-18.9 18.9h-157c-10.4 0-18.9-8.5-18.9-18.9V84.3c0-10.4 8.5-18.9 18.9-18.9h157c10.4 0 18.9 8.5 18.9 18.9v89.4zm44.3-83.1L267 74.7v15.9h-15.9zm0 0"/><path d="M80.3 142.7c-3.3 0-6 2.7-6 6v18.8H37.1v-29.3h25.7c3.3 0 6-2.7 6-6s-2.7-6-6-6H31.1c-3.3 0-6 2.7-6 6v41.3c0 3.3 2.7 6 6 6h49.1c3.3 0 6-2.7 6-6v-24.8c.1-3.3-2.6-6-5.9-6zm0 0M185.5 139.2h-70.2c-3.3 0-6 2.7-6 6s2.7 6 6 6h70.2c3.3 0 6-2.7 6-6s-2.7-6-6-6zm0 0M185.5 167.5h-70.2c-3.3 0-6 2.7-6 6s2.7 6 6 6h70.2c3.3 0 6-2.7 6-6 0-3.4-2.7-6-6-6zm0 0"/></symbol><symbol id="checkmark" viewBox="0 0 62.9 46"><style>.fst0{clip-path:url(#fSVGID_2_)}</style><defs><path id="fSVGID_1_" d="M0 .1h62.9V46H0z"/></defs><clipPath id="fSVGID_2_"><use xlink:href="#fSVGID_1_" overflow="visible"/></clipPath><path class="fst0" d="M62.4 6.9L23.6 45.7c-.3.3-.9.3-1.2 0L.3 23.7c-.3-.3-.3-.9 0-1.2l5.4-5.4c.3-.3.9-.3 1.2 0L23 33.2 55.8.3c.3-.3.9-.3 1.2 0l5.4 5.4c.4.3.4.8 0 1.2zm0 0"/></symbol><symbol id="company-logo" viewBox="0 0 329.7 186"><style>.gst0{fill:#333330}</style><path class="gst0" d="M19.5 110c0 4.1-2.7 6.9-7.5 6.9s-7.5-2.7-7.5-6.9V74.4c0-4.1 2.7-6.8 7.5-6.8s7.5 2.7 7.5 6.8V110zM71.6 95.6c0 11.6-8.9 20.6-23.6 20.6H36c-4.8 0-7.5-2.7-7.5-6.9V75.1c0-4.1 2.7-6.8 7.5-6.8h12c14.7 0 23.6 8.9 23.6 20.6v6.7zM43.5 80.5v23.3H48c4.8 0 8.2-3.4 8.2-8.2v-6.9c0-4.8-3.4-8.2-8.2-8.2h-4.5zM93.8 81.9V86h13c4.1 0 6.9 2.7 6.9 6.2s-2.7 6.2-6.9 6.2h-13v4.1H113c4.8 0 7.5 2.7 7.5 6.9s-2.7 6.9-7.5 6.9H86.3c-4.8 0-7.5-2.7-7.5-6.9V75.1c0-4.1 2.7-6.8 7.5-6.8h26c4.8 0 7.5 2.7 7.5 6.8s-2.7 6.9-7.5 6.9H93.8zM137 110c-1.7 4.1-4.5 6.9-8.2 6.9-4.5 0-7.5-3.1-7.5-6.9 0-2.1 1.7-6.2 1.7-6.2L134 75c2.1-5.1 5.1-8.2 12-8.2s10 3.1 12 8.2l11 28.8s1.7 4.1 1.7 6.2c0 3.8-3.1 6.9-7.5 6.9-3.8 0-6.5-2.7-8.2-6.9l-1.7-4.1h-14.4L137 110zm13-16.4l-3.8-10.3h-.7l-3.8 10.3h8.3zM7.5 150.4c-4.8 0-7.5-2.7-7.5-6.9 0-4.1 2.7-6.8 7.5-6.8h30.2c4.8 0 7.5 2.7 7.5 6.8s-2.7 6.9-7.5 6.9h-7.5v28.1c0 4.1-2.7 6.9-7.5 6.9s-7.5-2.7-7.5-6.9v-28.1H7.5zM64.7 167.5v11c0 4.1-2.7 6.9-7.5 6.9s-7.5-2.7-7.5-6.9v-34.9c0-4.1 2.7-6.8 7.5-6.8h14.4c14.4 0 20.6 6.2 20.6 15.4 0 8.6-7.5 11.3-7.5 11.3v.7l6.9 8.2s2.7 3.4 2.7 6.2c0 4.1-2.7 6.9-8.2 6.9-3.4 0-6.2-3.4-6.2-3.4l-11-14.4h-4.2zm6.9-11.6c3.1 0 4.8-1.7 4.8-3.8 0-2.1-1.7-3.8-4.8-3.8h-6.9v7.5h6.9zM111 178.5c-1.7 4.1-4.5 6.9-8.2 6.9-4.5 0-7.5-3.1-7.5-6.9 0-2.1 1.7-6.2 1.7-6.2l11-28.8c2.1-5.1 5.1-8.2 12-8.2s10 3.1 12 8.2l11 28.8s1.7 4.1 1.7 6.2c0 3.8-3.1 6.9-7.5 6.9-3.8 0-6.5-2.7-8.2-6.9l-1.7-4.1h-14.4l-1.9 4.1zm13-16.4l-3.8-10.3h-.7l-3.8 10.3h8.3zM174 142.9c1.2-4.1 3.8-6.8 8.2-6.8s7.5 3.1 7.5 6.8c0 2.1-1.7 6.2-1.7 6.2l-10.3 28.8c-1.8 5.1-5.1 8.2-12 8.2s-10.2-3.1-12-8.2L143.5 149s-1.7-4.1-1.7-6.2c0-3.8 3.1-6.8 7.5-6.8 4.5 0 7.1 2.7 8.2 6.8l7.9 26h.7l7.9-25.9zM209.3 150.4v4.1h13c4.1 0 6.9 2.7 6.9 6.2 0 3.4-2.7 6.2-6.9 6.2h-13v4.1h19.2c4.8 0 7.5 2.7 7.5 6.9s-2.7 6.9-7.5 6.9h-26.7c-4.8 0-7.5-2.7-7.5-6.9v-34.3c0-4.1 2.7-6.8 7.5-6.8h26c4.8 0 7.5 2.7 7.5 6.8s-2.7 6.9-7.5 6.9h-18.5zM272.6 171c4.8 0 7.5 2.7 7.5 6.9s-2.7 6.9-7.5 6.9h-24c-4.8 0-7.5-2.7-7.5-6.9V143c0-4.1 2.7-6.8 7.5-6.8s7.5 2.7 7.5 6.8v28h16.5z"/><g><path class="gst0" d="M286.9 65.7l-2.9-3.2 5.7-5.1 1.1.3c8.9 2.5 18.4.3 25.3-5.8 11.2-9.9 12.3-27.2 2.4-38.4s-27.2-12.3-38.4-2.4c-6.9 6.1-10.2 15.2-8.9 24.4l.2 1.2-5.7 5.1-2.9-3.2 4-3.6c-1.1-10.2 2.8-20.2 10.5-27 13-11.5 33-10.3 44.5 2.7s10.3 33-2.7 44.5c-7.7 6.8-18.2 9.4-28.1 7.1l-4.1 3.4z"/><path class="gst0" d="M289 12.5c-.2-.2-.3-.4-.4-.7-.4-1.1.2-2.4 1.3-2.8 7.5-2.7 15.8-1.4 22.2 3.3 1 .7 1.2 2.1.5 3-.7 1-2.1 1.2-3 .5-5.3-3.9-12.1-4.9-18.2-2.7-.9.3-1.8.1-2.4-.6zM278.5 74.8l-25.7-29.1c-2.5-2.9-2.3-7.3.6-9.8 2.9-2.5 7.3-2.3 9.8.6l25.7 29.1c2.5 2.9 2.3 7.3-.6 9.8-2.9 2.6-7.3 2.3-9.8-.6zm-18.6-35.4c-1-1.1-2.6-1.2-3.7-.2s-1.2 2.6-.2 3.7L281.7 72c1 1.1 2.6 1.2 3.7.2s1.2-2.6.2-3.7l-25.7-29.1z"/><path class="gst0" d="M269.1 79.4l-22-24.9c-2.6-3-2.3-7.5.6-10.2 3-2.6 7.5-2.3 10.2.6l22 24.9c2.6 3 2.3 7.5-.6 10.2-3 2.6-7.6 2.4-10.2-.6zm-14.5-31.6c-1.1-1.2-2.9-1.3-4.1-.2-1.2 1.1-1.3 2.9-.2 4.1l22 24.9c1.1 1.2 2.9 1.3 4.1.2 1.2-1.1 1.3-2.9.3-4.1l-22.1-24.9z"/><path class="gst0" d="M259.4 83.8l-17.9-20.2c-2.6-3-2.4-7.6.6-10.2 3-2.6 7.6-2.4 10.2.6l17.9 20.2c2.6 3 2.4 7.6-.6 10.2s-7.6 2.3-10.2-.6zm-10.3-27c-1.1-1.2-2.9-1.3-4.1-.3s-1.3 2.9-.2 4.1l17.9 20.2c1.1 1.2 2.9 1.3 4.1.3 1.2-1.1 1.3-2.9.2-4.1l-17.9-20.2z"/><path class="gst0" d="M223.1 52.4c-.6-.7-.8-1.3-.9-1.8-.1-1 .1-2.9 3-4.5l15.2-8.3c2.8-1.5 7.4-2.7 10.3-1.8l3.5 1.1-1.3 4.1-3.5-1.1c-1.1-.3-4.3.1-6.9 1.5l-15.2 8.3s-.1 0-.1.1h.1l16 3.8-1 4.2-16-3.8c-1.6-.5-2.6-1.1-3.2-1.8zM268.2 103.5c-.6-.7-1.1-1.8-1.3-3.4l-1.8-16.4 4.3-.5 1.8 16.4v.1s0-.1.1-.1l10.1-14.1c1.7-2.4 2.5-5.6 2.3-6.7l-.7-3.6 4.2-.8.7 3.6c.6 2.9-1.2 7.3-3 10l-10.1 14.1c-1.9 2.7-3.9 2.7-4.8 2.5-.5-.2-1.2-.5-1.8-1.1zM236.1 86.3l-.3-.9c-4.9-15.4 5.9-24.2 6.3-24.6l2.7 3.4c-.4.3-8.5 7.1-5.2 19 11.5 4.8 19.4-2.7 19.5-2.8l3 3.1c-.4.4-10.6 10-25.2 3.3l-.8-.5zM270.2 50.1c-.7-.8-.7-2-.1-2.8l22.3-27.2c.8-.9 2.1-1.1 3-.3.9.8 1.1 2.1.3 3L273.4 50c-.8.9-2.1 1.1-3 .3-.1-.1-.2-.1-.2-.2zM276.2 57.1c-.1-.1-.1-.2-.2-.3-.6-1-.3-2.3.7-3L306.4 35c1-.6 2.3-.4 3 .7.6 1 .3 2.3-.7 3L279 57.5c-.9.5-2.1.3-2.8-.4z"/><path transform="rotate(48.523 282.577 45.141)" class="gst0" d="M276.3 43.1h12.6v4.2h-12.6z"/><g><path class="gst0" d="M223.6 114c-.8-.9-.7-2.2.2-2.9l14-12.3c.9-.8 2.2-.7 2.9.2.8.9.7 2.2-.2 2.9l-14 12.3c-.8.7-2.1.6-2.9-.2z"/></g><g><path class="gst0" d="M210.3 92.6c-.8-.9-.7-2.2.2-2.9l14-12.3c.9-.8 2.2-.7 2.9.2s.7 2.2-.2 2.9l-14 12.3c-.9.7-2.2.7-2.9-.2z"/></g><g><path class="gst0" d="M199.4 102.2c-.8-.9-.7-2.2.2-2.9l4.7-4.1c.9-.8 2.2-.7 2.9.2.8.9.7 2.2-.2 2.9l-4.7 4.1c-.8.8-2.1.7-2.9-.2z"/></g><g><path class="gst0" d="M195.2 122.5c-.8-.9-.7-2.2.2-2.9l29.5-26.1c.9-.8 2.2-.7 2.9.2.8.9.7 2.2-.2 2.9l-29.5 26.1c-.8.7-2.1.7-2.9-.2z"/></g></g></symbol><symbol id="company-logo-two" viewBox="0 0 452.1 49.3"><style>.hst0{fill:#333330}</style><path class="hst0" d="M14.6 41.9c0 4-2.7 6.7-7.3 6.7-4.7 0-7.3-2.7-7.3-6.7V7.3C0 3.3 2.7.6 7.3.6c4.7 0 7.3 2.7 7.3 6.7v34.6zM65.2 28c0 11.3-8.7 20-23 20H30.6c-4.7 0-7.3-2.7-7.3-6.7V8c0-4 2.7-6.7 7.3-6.7h11.6c14.3 0 23 8.7 23 20V28zM37.9 13.3v22.6h4.3c4.7 0 8-3.3 8-8v-6.7c0-4.7-3.3-8-8-8h-4.3zM86.8 14.6v4h12.6c4 0 6.7 2.7 6.7 6s-2.7 6-6.7 6H86.8v4h18.6c4.7 0 7.3 2.7 7.3 6.7S110 48 105.4 48h-26c-4.7 0-7.3-2.7-7.3-6.7V8c0-4 2.7-6.7 7.3-6.7h25.3c4.7 0 7.3 2.7 7.3 6.7s-2.7 6.7-7.3 6.7H86.8zM128.7 41.9c-1.7 4-4.3 6.7-8 6.7-4.3 0-7.3-3-7.3-6.7 0-2 1.7-6 1.7-6l10.7-28c2-5 5-8 11.6-8 6.7 0 9.7 3 11.6 8l10.6 28s1.7 4 1.7 6c0 3.7-3 6.7-7.3 6.7-3.7 0-6.3-2.7-8-6.7l-1.7-4h-14l-1.6 4zM141.4 26l-3.7-10h-.7l-3.7 10h8.1zM187.3 14.6c-4.7 0-7.3-2.7-7.3-6.7s2.7-6.7 7.3-6.7h29.3c4.7 0 7.3 2.7 7.3 6.7s-2.7 6.7-7.3 6.7h-7.3v27.3c0 4-2.7 6.7-7.3 6.7-4.7 0-7.3-2.7-7.3-6.7V14.6h-7.4zM242.8 31.3V42c0 4-2.7 6.7-7.3 6.7-4.7 0-7.3-2.7-7.3-6.7V8c0-4 2.7-6.7 7.3-6.7h14c14 0 20 6 20 15 0 8.3-7.3 11-7.3 11v.7l6.7 8s2.7 3.3 2.7 6c0 4-2.7 6.7-8 6.7-3.3 0-6-3.3-6-3.3l-10.7-14h-4.1zm6.7-11.3c3 0 4.7-1.7 4.7-3.7s-1.7-3.7-4.7-3.7h-6.7V20h6.7zM287.7 41.9c-1.7 4-4.3 6.7-8 6.7-4.3 0-7.3-3-7.3-6.7 0-2 1.7-6 1.7-6l10.7-28c2-5 5-8 11.6-8s9.7 3 11.7 8l10.6 28s1.7 4 1.7 6c0 3.7-3 6.7-7.3 6.7-3.7 0-6.3-2.7-8-6.7l-1.7-4h-14l-1.7 4zM300.4 26l-3.7-10h-.7l-3.7 10h8.1zM349 7.3c1.1-4 3.7-6.7 8-6.7s7.3 3 7.3 6.7c0 2-1.7 6-1.7 6l-10 28c-1.7 5-5 8-11.6 8-6.7 0-9.9-3-11.6-8l-10-28s-1.7-4-1.7-6c0-3.7 3-6.7 7.3-6.7s6.9 2.7 8 6.7l7.7 25.3h.7L349 7.3zM383.2 14.6v4h12.6c4 0 6.7 2.7 6.7 6s-2.7 6-6.7 6h-12.6v4h18.6c4.7 0 7.3 2.7 7.3 6.7s-2.7 6.7-7.3 6.7h-26c-4.7 0-7.3-2.7-7.3-6.7V8c0-4 2.7-6.7 7.3-6.7h25.3c4.7 0 7.3 2.7 7.3 6.7s-2.7 6.7-7.3 6.7h-17.9zM444.8 34.6c4.7 0 7.3 2.7 7.3 6.7s-2.7 6.7-7.3 6.7h-23.3c-4.7 0-7.3-2.7-7.3-6.7v-34c0-4 2.7-6.7 7.3-6.7 4.7 0 7.3 2.7 7.3 6.7v27.3h16z"/></symbol><symbol viewBox="0 0 353.8 409.6" id="cup"><path d="M344.6 53.9h-51.5V9.1C293.1 4 289 0 284 0H69.7c-5 0-9.1 4.1-9.1 9.1v44.8H9.1c-5 0-9.1 4.1-9.1 9.2 0 41.8 25.4 79.6 63.6 95.7 9.8 42.1 42.5 75.5 84.3 86.3 1.7 21.2-12.5 41.1-33.8 45.9-.1 0-.2.1-.3.1-.2.1-.4.1-.6.2-.1 0-.2.1-.4.1-.2.1-.3.1-.5.2-.1.1-.3.1-.4.2-.1.1-.2.1-.4.2s-.3.2-.5.3c-.1.1-.2.1-.3.2-.2.1-.3.2-.5.3-.1.1-.2.1-.2.2l-.4.4-.2.2-.4.4c-.1.1-.1.2-.2.3-.1.1-.2.3-.3.4-.1.1-.1.2-.2.3-.1.1-.2.3-.3.4-.1.1-.1.2-.2.3-.1.1-.1.3-.2.4-.1.1-.1.2-.2.4s-.1.3-.2.5c0 .1-.1.2-.1.3-.1.2-.1.4-.1.6 0 .1 0 .2-.1.3 0 .2-.1.5-.1.7v28.5H81.3c-5.1 0-9.1 4.1-9.1 9.1v64c0 5 4.1 9.1 9.1 9.1h192c5 0 9.1-4.1 9.1-9.1v-64c0-5.1-4.1-9.1-9.1-9.1h-25.6V300c0-2.4-.9-4.6-2.5-6.2-.2-.2-.4-.4-.6-.5l-.1-.1c-.2-.2-.4-.3-.6-.5l-.1-.1c-.2-.1-.4-.3-.6-.4l-.1-.1c-.2-.1-.4-.2-.7-.3 0 0-.1 0-.1-.1-.2-.1-.5-.2-.8-.3h-.1c-.3-.1-.5-.2-.8-.2h-.1c-21.4-4.8-35.6-24.9-33.8-46.2 41.3-11 73.6-44.2 83.3-86 38.3-16.1 63.7-53.9 63.7-95.7.1-5.3-4-9.4-9.1-9.4zM18.8 72.2h41.8v60.6c0 1.4 0 2.7.1 4.1-23.3-13.6-39-37.7-41.9-64.7zm245.4 273.4v45.7H90.5v-45.7h173.7zM229.4 309v18.3H125.2V309h104.2zm-79.8-18.3c2.6-2.7 4.9-5.7 6.9-8.9 6.5-10.2 9.8-21.8 9.8-33.6 3.5.3 7 .5 10.5.5 3.9 0 7.7-.2 11.5-.6-.1 16 6.1 31.3 16.8 42.6h-55.5zm125.2-158.3c0 54-44 98-98 98s-98-44-98-98V18.3h196v114.1zm18.2 4.5c.1-1.4.1-2.7.1-4.1V72.2H335c-2.9 27.1-18.7 51.1-42 64.7zm0 0"/><path d="M205.7 359.3H149c-5.1 0-9.1 4.1-9.1 9.1s4.1 9.1 9.1 9.1h56.7c5.1 0 9.1-4.1 9.1-9.1s-4.1-9.1-9.1-9.1zm0 0M232.2 100.2c-1.1-3.3-3.9-5.7-7.4-6.2l-27.2-3.9-12.2-24.6c-1.5-3.1-4.7-5.1-8.2-5.1-3.5 0-6.7 2-8.2 5.1l-12 24.6-27.2 3.9c-3.4.5-6.3 2.9-7.4 6.2-1.1 3.3-.2 6.9 2.3 9.4l19.7 19.2-4.6 27.1c-.6 3.4.8 6.9 3.6 8.9s6.5 2.3 9.6.7l24.3-12.8 24.3 12.8c1.3.7 2.8 1 4.3 1 1.9 0 3.8-.6 5.4-1.7 2.8-2 4.2-5.5 3.6-8.9l-4.6-27.1 19.7-19.2c2.4-2.4 3.3-6.1 2.2-9.4zM194 119c-2.2 2.1-3.1 5.1-2.6 8.1l2.3 13.5-12.2-6.4c-1.3-.7-2.8-1.1-4.3-1.1s-2.9.4-4.3 1.1l-12.2 6.4 2.3-13.5c.5-3-.5-6-2.6-8.1l-9.8-9.6 13.6-2c3-.4 5.5-2.3 6.9-5l6.1-12.3 6.1 12.3a9 9 0 0 0 6.9 5l13.6 2-9.8 9.6zm0 0"/></symbol><symbol id="eye" viewBox="0 0 352.8 196.9"><style>.jst0{clip-path:url(#jSVGID_2_)}</style><defs><path id="jSVGID_1_" d="M0 0h352.8v196.9H0z"/></defs><clipPath id="jSVGID_2_"><use xlink:href="#jSVGID_1_" overflow="visible"/></clipPath><path class="jst0" d="M350.2 93.3c-.8-1-19.8-23.6-50.6-46.5C258.4 16.1 215.7-.1 176-.1c-39.7 0-82.4 16.2-123.6 46.8C21.6 69.6 2.6 92.3 1.9 93.3c-2.5 3-2.5 7.3 0 10.2.8 1 19.8 23.6 50.6 46.5 41.2 30.6 83.9 46.8 123.6 46.8 39.7 0 82.4-16.2 123.6-46.8 30.8-22.9 49.8-45.6 50.6-46.5 2.4-3 2.4-7.3-.1-10.2zM176 158.4c-33.1 0-60-26.9-60-60s26.9-60 60-60 60 26.9 60 60-26.8 60-60 60zm0 0"/><path d="M187.2 72.7c-1.7 4.5-6.1 7.7-11.2 7.7s-9.5-3.2-11.2-7.7A27.99 27.99 0 0 0 148 98.4c0 15.5 12.5 28 28 28s28-12.5 28-28c0-11.5-6.9-21.4-16.8-25.7zm0 0"/></symbol><symbol id="floating-logo" viewBox="0 0 452.1 49.3"><style>.kst0{fill:#333330}</style><path class="kst0" d="M14.6 41.9c0 4-2.7 6.7-7.3 6.7-4.7 0-7.3-2.7-7.3-6.7V7.3C0 3.3 2.7.6 7.3.6c4.7 0 7.3 2.7 7.3 6.7v34.6zM65.2 28c0 11.3-8.7 20-23 20H30.6c-4.7 0-7.3-2.7-7.3-6.7V8c0-4 2.7-6.7 7.3-6.7h11.6c14.3 0 23 8.7 23 20V28zM37.9 13.3v22.6h4.3c4.7 0 8-3.3 8-8v-6.7c0-4.7-3.3-8-8-8h-4.3zM86.8 14.6v4h12.6c4 0 6.7 2.7 6.7 6s-2.7 6-6.7 6H86.8v4h18.6c4.7 0 7.3 2.7 7.3 6.7S110 48 105.4 48h-26c-4.7 0-7.3-2.7-7.3-6.7V8c0-4 2.7-6.7 7.3-6.7h25.3c4.7 0 7.3 2.7 7.3 6.7s-2.7 6.7-7.3 6.7H86.8zM128.7 41.9c-1.7 4-4.3 6.7-8 6.7-4.3 0-7.3-3-7.3-6.7 0-2 1.7-6 1.7-6l10.7-28c2-5 5-8 11.6-8 6.7 0 9.7 3 11.6 8l10.6 28s1.7 4 1.7 6c0 3.7-3 6.7-7.3 6.7-3.7 0-6.3-2.7-8-6.7l-1.7-4h-14l-1.6 4zM141.4 26l-3.7-10h-.7l-3.7 10h8.1zM187.3 14.6c-4.7 0-7.3-2.7-7.3-6.7s2.7-6.7 7.3-6.7h29.3c4.7 0 7.3 2.7 7.3 6.7s-2.7 6.7-7.3 6.7h-7.3v27.3c0 4-2.7 6.7-7.3 6.7-4.7 0-7.3-2.7-7.3-6.7V14.6h-7.4zM242.8 31.3V42c0 4-2.7 6.7-7.3 6.7-4.7 0-7.3-2.7-7.3-6.7V8c0-4 2.7-6.7 7.3-6.7h14c14 0 20 6 20 15 0 8.3-7.3 11-7.3 11v.7l6.7 8s2.7 3.3 2.7 6c0 4-2.7 6.7-8 6.7-3.3 0-6-3.3-6-3.3l-10.7-14h-4.1zm6.7-11.3c3 0 4.7-1.7 4.7-3.7s-1.7-3.7-4.7-3.7h-6.7V20h6.7zM287.7 41.9c-1.7 4-4.3 6.7-8 6.7-4.3 0-7.3-3-7.3-6.7 0-2 1.7-6 1.7-6l10.7-28c2-5 5-8 11.6-8s9.7 3 11.7 8l10.6 28s1.7 4 1.7 6c0 3.7-3 6.7-7.3 6.7-3.7 0-6.3-2.7-8-6.7l-1.7-4h-14l-1.7 4zM300.4 26l-3.7-10h-.7l-3.7 10h8.1zM349 7.3c1.1-4 3.7-6.7 8-6.7s7.3 3 7.3 6.7c0 2-1.7 6-1.7 6l-10 28c-1.7 5-5 8-11.6 8-6.7 0-9.9-3-11.6-8l-10-28s-1.7-4-1.7-6c0-3.7 3-6.7 7.3-6.7s6.9 2.7 8 6.7l7.7 25.3h.7L349 7.3zM383.2 14.6v4h12.6c4 0 6.7 2.7 6.7 6s-2.7 6-6.7 6h-12.6v4h18.6c4.7 0 7.3 2.7 7.3 6.7s-2.7 6.7-7.3 6.7h-26c-4.7 0-7.3-2.7-7.3-6.7V8c0-4 2.7-6.7 7.3-6.7h25.3c4.7 0 7.3 2.7 7.3 6.7s-2.7 6.7-7.3 6.7h-17.9zM444.8 34.6c4.7 0 7.3 2.7 7.3 6.7s-2.7 6.7-7.3 6.7h-23.3c-4.7 0-7.3-2.7-7.3-6.7v-34c0-4 2.7-6.7 7.3-6.7 4.7 0 7.3 2.7 7.3 6.7v27.3h16z"/></symbol><symbol viewBox="0 0 397.8 401.6" id="location"><path d="M288.6 77.6c4.4 3.3 8.7 6.9 12.8 10.6 1.5 1.4 3.5 2.1 5.4 2.1 2.1 0 4.3-.9 5.9-2.6 3-3.2 2.8-8.3-.4-11.3-4.5-4.2-9.2-8.1-14.1-11.8-3.5-2.6-8.6-1.9-11.2 1.6-2.7 3.8-2 8.8 1.6 11.4zm0 0M68.8 172.2c-23.3 0-42.2 18.9-42.2 42.2 0 23.3 18.9 42.2 42.2 42.2 23.3 0 42.2-18.9 42.2-42.2 0-23.3-18.9-42.2-42.2-42.2zm0 68.3c-14.4 0-26.2-11.7-26.2-26.2 0-14.4 11.7-26.2 26.2-26.2 14.4 0 26.2 11.7 26.2 26.2s-11.8 26.2-26.2 26.2zm0 0M241.3 68.8c0-23.3-18.9-42.2-42.2-42.2-23.3 0-42.2 18.9-42.2 42.2 0 23.3 18.9 42.2 42.2 42.2 23.3 0 42.2-18.9 42.2-42.2zm-68.3 0c0-14.4 11.7-26.2 26.2-26.2 14.4 0 26.2 11.7 26.2 26.2 0 14.4-11.7 26.2-26.2 26.2S173 83.2 173 68.8zm0 0"/><path d="M363.8 221.3c1-7.5 1.6-15.2 1.6-22.9 0-36.8-11.8-71.7-34-100.9-2.7-3.5-7.7-4.2-11.2-1.5-3.5 2.7-4.2 7.7-1.5 11.2 20.1 26.4 30.8 57.9 30.8 91.1 0 5.4-.3 10.9-.9 16.2-6.2-1.8-12.7-2.8-19.4-2.8-37.9 0-68.8 30.9-68.8 68.8 0 11 5.4 26.7 16.1 46.8-23.3 14-49.9 21.4-77.4 21.4-39.7 0-76.8-15.1-105-42.8 3.8-5.6 7.9-11.8 12.1-18.3 21-33.2 31.6-57.9 31.6-73.3 0-37.9-30.9-68.8-68.8-68.8-3.8 0-7.5.3-11.1.9 13-35.4 39.2-64.8 72.8-82-.1 1.4-.2 2.9-.2 4.4 0 15.5 10.6 40.1 31.6 73.3 15.2 24.1 30.2 43.7 30.8 44.5 1.5 2 3.9 3.1 6.4 3.1 2.5 0 4.8-1.2 6.4-3.1.6-.8 15.6-20.4 30.8-44.5 21-33.2 31.6-57.9 31.6-73.3C268 30.9 237.1 0 199.2 0c-29.5 0-54.8 18.7-64.5 44.9C88.3 64.3 52.9 104.2 39 152.4c-23.1 11.1-39 34.7-39 62 0 15.5 10.6 40.1 31.6 73.3 15.2 24.1 30.2 43.7 30.8 44.5 1.5 2 3.9 3.1 6.4 3.1 2.5 0 4.8-1.2 6.4-3.1.3-.4 4-5.2 9.5-12.9 13.9 13.2 29.8 23.7 47.3 31.5 21.1 9.3 43.7 14 67 14 30.2 0 59.5-8.1 85.2-23.5 2.4 4.1 5 8.3 7.7 12.6 15.2 24.1 30.2 43.7 30.8 44.5 1.5 2 3.9 3.1 6.3 3.1 2.5 0 4.8-1.2 6.4-3.1.6-.8 15.6-20.4 30.8-44.5 21-33.2 31.6-57.9 31.6-73.3 0-25.2-13.7-47.4-34-59.3zM199.2 16c29.1 0 52.8 23.7 52.8 52.8 0 22.5-33.8 73.4-52.8 99.6-19.1-26.1-52.8-77.1-52.8-99.6 0-29.1 23.6-52.8 52.8-52.8zM68.8 313.9c-19.1-26.1-52.8-77-52.8-99.5 0-29.1 23.7-52.8 52.8-52.8s52.8 23.7 52.8 52.8c0 22.5-33.8 73.4-52.8 99.5zM329 380.2c-19-26.1-52.8-77.1-52.8-99.6 0-29.1 23.7-52.8 52.8-52.8 29.1 0 52.8 23.7 52.8 52.8 0 22.5-33.7 73.5-52.8 99.6zm0 0"/><path d="M329 238.5c-23.3 0-42.2 18.9-42.2 42.2s18.9 42.2 42.2 42.2c23.3 0 42.2-18.9 42.2-42.2s-18.9-42.2-42.2-42.2zm0 68.3c-14.4 0-26.2-11.7-26.2-26.2 0-14.4 11.7-26.2 26.2-26.2 14.4 0 26.2 11.7 26.2 26.2s-11.7 26.2-26.2 26.2zm0 0"/></symbol><symbol id="luxury" viewBox="0 0 79.9 22"><style>.mst0{clip-path:url(#mSVGID_2_)}</style><path d="M14.6 9.8c-3.3.1-5.8 2.9-5.7 6.2 0 .2 0 .5.1.7.5 2.9 3.1 5.1 6.1 5a5.9 5.9 0 0 0 5.7-5.7v-.5c-.2-3.3-3-5.9-6.2-5.7zm-.5 2.2l.1 1.7c-.2.1-.4.1-.5.2l-1.3-1.2c.5-.3 1.1-.5 1.7-.7zm-2.4 1.6l1.3 1.2c-.1.2-.2.3-.2.5l-1.7.1c0-.7.3-1.3.6-1.8zm-.6 2.8l1.7-.1c.1.2.1.4.2.5l-1.2 1.3c-.3-.5-.6-1.1-.7-1.7zm1.6 2.4l1.2-1.3c.2.1.3.1.5.2l.1 1.7c-.7 0-1.3-.3-1.8-.6zm5.8-3.7l-1.7.1c-.1-.2-.1-.4-.2-.5l1.2-1.3c.3.4.5 1 .7 1.7zM15.2 12c.7.1 1.3.3 1.8.6l-1.2 1.3c-.2-.1-.3-.2-.5-.2l-.1-1.7zm.3 7.4l-.1-1.7c.2-.1.4-.1.5-.2l1.3 1.2c-.5.3-1.1.6-1.7.7zm2.4-1.6l-1.3-1.2c.1-.2.2-.3.2-.5l1.7-.1c-.1.7-.3 1.3-.6 1.8zm0 0"/><defs><path id="mSVGID_1_" d="M0 0h79.9v22H0z"/></defs><clipPath id="mSVGID_2_"><use xlink:href="#mSVGID_1_" overflow="visible"/></clipPath><path class="mst0" d="M60.4 8.4c-3.3.1-5.8 2.9-5.7 6.2 0 .3 0 .5.1.7.5 2.9 3.1 5.1 6.1 5a5.9 5.9 0 0 0 5.7-5.7v-.5c-.2-3.3-2.9-5.9-6.2-5.7zm-.4 2.2l.1 1.7c-.2.1-.4.1-.5.2l-1.3-1.2c.4-.3 1-.5 1.7-.7zm-2.4 1.6l1.3 1.2c-.1.2-.2.3-.2.5L57 14c0-.7.2-1.3.6-1.8zm-.7 2.8l1.7-.1c.1.2.1.4.2.5l-1.2 1.3c-.3-.5-.5-1.1-.7-1.7zm1.6 2.4l1.2-1.3c.2.1.3.1.5.2l.1 1.7c-.7 0-1.3-.3-1.8-.6zm5.8-3.7l-1.7.1c-.1-.2-.1-.4-.2-.5l1.2-1.3c.3.4.6 1 .7 1.7zM61 10.6c.7.1 1.3.3 1.8.6l-1.2 1.3c-.2-.1-.3-.2-.5-.2l-.1-1.7zm.3 7.4l-.1-1.7c.2-.1.4-.1.5-.2l1.3 1.2c-.5.3-1.1.6-1.7.7zm2.4-1.6l-1.3-1.2c.1-.2.2-.3.2-.5l1.7-.1c0 .7-.3 1.3-.6 1.8zm0 0"/><path class="mst0" d="M79.4 10.7c-.1-.2-.3-.3-.5-.3H78s.5-2.3.6-3.4c0-.1 0-.2-.1-.3-.1-.1-.2-.1-.3-.1-3 .1-16.2-2.7-20.3-5.8-.4-.3-1-.5-1.5-.5-3.1-.4-9.3-.3-11.9-.2-.8 0-1.5.2-2.1.6 0 0-6.2 3.7-8.4 4.7-3.8 1.6-12.6 1.1-15.1 1-3.1-.2-8.2-.4-13.8 3.5 0 0-2.6.7-4.6 1.8-.3.2-.5.5-.5.8 0 .3.1.7.4.9.3.2.5.3.5.3l.1.5c.3 1.1 1 1.9 2 2.4l2 .7c1.1.5 2.2.7 3.4.7-.1-.4-.3-.8-.3-1.2-.1-.3-.1-.5-.1-.8-.1-1.8.6-3.6 1.8-4.9C11 9.7 12.7 9 14.5 8.9c3.8-.1 6.9 2.8 7.1 6.5v.6c0 .8-.2 1.6-.5 2.3h1.6l32.8.4c-.8-.9-1.3-2-1.5-3.3 0-.3-.1-.6-.1-.9-.1-1.8.6-3.6 1.8-4.9 1.2-1.3 2.9-2.1 4.7-2.2 3.8-.1 6.9 2.8 7.1 6.5v.6c0 .7-.2 1.4-.4 2l6.4-.2c.2 0 .3-.1.4-.2l1.5-1.7H77c.2 0 .4-.1.5-.3l1.9-2.9c.1-.1.1-.3 0-.5zM52.2 5H52c-.5.1-.9.4-1.1.7-1.4.9-8.3 1-12.9.4l5.3-4.3c.3-.2.6-.3 1-.3l7.7-.1c.4 0 .8.3.8.8l.1 2c-.1.3-.3.7-.7.8zm0 0"/></symbol><symbol id="minibus" viewBox="0 0 381.9 167.2"><style>.nst0{clip-path:url(#nSVGID_2_)}</style><defs><path id="nSVGID_1_" d="M0 0h381.9v167.2H0z"/></defs><clipPath id="nSVGID_2_"><use xlink:href="#nSVGID_1_" overflow="visible"/></clipPath><path class="nst0" d="M379.6 122.8c0-1.6-1.2-2.8-2.7-3l-5.1-.6-.1-5.2 2.4-2.2c1.3-1.3 2.1-3 2.1-4.9l-.3-16.1c-.1-3.1-2.3-5.7-5.3-6.2 0 0-2.8-62.5-15.9-74.1C340.4-2.2 99.5-3.6 47.4 7.4c-4.3.9-8.2 3.1-11.1 6.4-10.9 12-21.9 36.3-21.9 36.3s-6.6 1.8-9.2 11.2c-.9 3.4-1 11.8-.8 21.8h-.2C1.8 83.1 0 85 0 87.4l.2 9.4c0 1.1.5 2.2 1.3 3 .8.8 1.9 1.2 3 1.2h.8c.3 5.1.6 10 .9 14.3.6 8.3 7.4 14.7 15.7 14.7h26.3l9.8-21.8c1.8-4 5.8-6.7 10.2-6.8L91 101c4.2-.1 8.2 2.2 10.2 5.8l13 23.1 149.1-.1 11.9-22.7c2-3.9 6-6.3 10.4-6.3h21.7c4.3 0 8.3 2.4 10.3 6.1L336 141l22.7-.3c4.1-.1 7.7-2.6 9.2-6.4l9.7-3.6c1.3-.5 2.1-1.7 2-3v-4.9zM38.1 50.7c-2.1 0-4.1-1-5.2-2.7-1.2-1.7-1.3-3.9-.5-5.8l9.4-21.4c.9-2 2.8-3.3 4.9-3.3l3.4-.1.3 33.1-12.3.2zm69.3-6.2c-.2 2.8-2.5 4.9-5.3 5l-48.9.9-.3-33.1 50.8-1c1.6 0 3 .6 4.1 1.7 1 1.1 1.6 2.6 1.5 4.2l-1.9 22.3zM219 47.9c-1 1-2.4 1.6-3.9 1.6l-83.6-.5c-2.9 0-5.3-2.4-5.4-5.3l-.4-22.2c0-1.5.5-2.9 1.6-3.9 1-1 2.4-1.6 3.9-1.6l83.6.7c3 0 5.3 2.4 5.4 5.3l.4 22c0 1.4-.6 2.8-1.6 3.9zm112.8-.5c-1 1.3-2.6 2-4.2 2l-88.5-.4c-2.9 0-5.3-2.4-5.4-5.3l-.4-22.2c0-1.5.5-2.9 1.6-3.9 1-1 2.4-1.6 3.9-1.6l78.5.6c6 .1 11.2 4.3 12.4 10.2l3.3 16c.3 1.7-.1 3.3-1.2 4.6zm0 0"/><path d="M80 106.8c-16 .1-28.9 13.2-28.7 29.2 0 1.3.1 2.4.3 3.6 1.9 14.3 14.2 25.3 29 25.1 15.2-.1 27.5-11.9 28.7-26.8.1-.8.1-1.6.1-2.5-.2-15.9-13.3-28.8-29.4-28.6zm-2.4 11l.1 8.3c-.9.2-1.8.6-2.6 1.1l-6-5.8c2.5-1.9 5.4-3.1 8.5-3.6zm-12 7.2l6 5.9c-.5.8-.8 1.7-1 2.6l-8.3.1c.4-3.3 1.5-6.2 3.3-8.6zm-3.3 13.5l8.4-.1c.2.9.6 1.8 1.1 2.5l-5.9 6c-1.9-2.4-3.1-5.3-3.6-8.4zm7.2 11.9l5.8-6c.8.4 1.6.8 2.5 1l.1 8.4c-3.1-.4-6-1.6-8.4-3.4zm28.8-17.3l-8.3.1c-.2-.9-.6-1.8-1.1-2.5l5.9-6c1.8 2.4 3 5.3 3.5 8.4zm-15.7-15.3c3.2.4 6.1 1.6 8.5 3.4l-5.9 6c-.8-.5-1.7-.8-2.6-1v-8.4zm.4 36l-.1-8.4c.9-.2 1.7-.6 2.5-1.1l6 5.9c-2.4 1.9-5.3 3.1-8.4 3.6zm11.9-7.1l-6-5.9c.4-.8.8-1.6 1.1-2.5l8.3-.1c-.4 3.1-1.6 6-3.4 8.5zm0 0M296.3 106.8c-16 .2-28.9 13.3-28.7 29.3 0 1.3.1 2.4.3 3.6 1.9 14.3 14.2 25.3 29 25.1 15.2-.1 27.5-11.9 28.7-26.8.1-.8.1-1.6.1-2.5-.2-16-13.4-28.9-29.4-28.7zm-2.4 11l.1 8.3c-.9.2-1.8.6-2.5 1.1l-6-5.8c2.4-1.9 5.2-3.1 8.4-3.6zm-12 7.2l6 5.9c-.5.8-.8 1.7-1 2.6l-8.3.1c.3-3.3 1.5-6.2 3.3-8.6zm-3.3 13.5l8.4-.1c.2.9.6 1.8 1.1 2.5l-5.9 6c-1.9-2.4-3.2-5.3-3.6-8.4zm7.2 11.9l5.9-6c.8.4 1.6.8 2.5 1l.1 8.4c-3.2-.4-6.1-1.6-8.5-3.4zm28.8-17.3l-8.3.1c-.2-.9-.6-1.8-1.1-2.5l5.9-6c1.8 2.4 3 5.3 3.5 8.4zm-15.7-15.3c3.2.4 6.1 1.6 8.5 3.4l-5.8 6c-.8-.5-1.7-.8-2.6-1l-.1-8.4zm.4 36l-.1-8.4c.9-.2 1.7-.6 2.5-1.1l6 5.9c-2.4 1.9-5.3 3.1-8.4 3.6zm11.9-7.1l-6-5.9c.4-.8.8-1.6 1.1-2.5l8.3-.1c-.4 3.1-1.6 6-3.4 8.5zm0 0"/></symbol><symbol id="minivan" viewBox="0 0 384.4 153.9"><style>.ost0{clip-path:url(#oSVGID_2_)}</style><path d="M73.5 91.7c-16.1 0-29.1 13-29.1 29.1 0 1.2.1 2.5.2 3.7 1.8 14.3 14 25.4 28.8 25.4 15.2 0 27.7-11.7 29-26.6.1-.8.1-1.6.1-2.5.1-16.1-12.9-29.1-29-29.1zm-14.6 18.1l5.9 5.9c-.5.8-.8 1.7-1.1 2.6h-8.4c.6-3.2 1.8-6.1 3.6-8.5zm-3.5 13.5h8.4c.2.9.6 1.7 1 2.5l-6 5.9c-1.7-2.3-3-5.2-3.4-8.4zM71 138.8c-3.1-.4-6-1.7-8.4-3.5l5.9-5.9c.8.4 1.6.8 2.5 1v8.4zm0-27.7c-.9.2-1.8.6-2.6 1.1l-5.9-5.9c2.4-1.8 5.3-3.1 8.5-3.5v8.3zm5-8.4c3.2.5 6.1 1.7 8.5 3.5l-5.9 5.9c-.8-.5-1.7-.8-2.6-1.1v-8.3zm0 36.1v-8.4c.9-.2 1.7-.6 2.5-1l5.9 5.9c-2.4 1.9-5.2 3.1-8.4 3.5zm12.1-7l-6-6c.5-.8.8-1.6 1.1-2.5h8.4c-.5 3.2-1.7 6.1-3.5 8.5zm-4.9-13.5c-.2-.9-.6-1.8-1.1-2.6l5.9-5.9c1.8 2.4 3 5.3 3.5 8.5h-8.3zm0 0"/><defs><path id="oSVGID_1_" d="M0 0h384.4v153.9H0z"/></defs><clipPath id="oSVGID_2_"><use xlink:href="#oSVGID_1_" overflow="visible"/></clipPath><path class="ost0" d="M323.1 91.7c-16.1 0-29.1 13-29.1 29.1 0 1.2.1 2.5.2 3.7 1.8 14.3 14 25.4 28.8 25.4 15.2 0 27.7-11.7 29-26.6.1-.8.1-1.6.1-2.5.1-16.1-12.9-29.1-29-29.1zm-14.6 18.1l5.9 5.9c-.5.8-.8 1.7-1.1 2.6H305c.5-3.2 1.7-6.1 3.5-8.5zm-3.5 13.5h8.4c.2.9.6 1.7 1.1 2.5l-6 5.9c-1.8-2.3-3-5.2-3.5-8.4zm15.6 15.5c-3.2-.4-6-1.7-8.4-3.5l5.9-5.9c.8.4 1.6.8 2.5 1v8.4zm0-27.7c-.9.2-1.8.6-2.6 1.1l-5.9-5.9c2.4-1.8 5.3-3.1 8.5-3.5v8.3zm5-8.4c3.2.5 6.1 1.7 8.5 3.5l-5.9 5.9c-.8-.5-1.6-.8-2.6-1.1v-8.3zm0 36.1v-8.4c.9-.2 1.8-.6 2.5-1l5.9 5.9c-2.4 1.9-5.2 3.1-8.4 3.5zm12.1-7l-6-6c.5-.8.8-1.6 1.1-2.5h8.4c-.5 3.2-1.7 6.1-3.5 8.5zm-4.9-13.5c-.2-.9-.6-1.8-1.1-2.6l5.9-5.9c1.8 2.4 3 5.3 3.5 8.5h-8.3zm0 0"/><path class="ost0" d="M381.3 68.1c-.2-6.4-2-12.7-5.1-18.3l-20.9-36.9c-3.4-6-9.7-9.9-16.6-10.3-35-1.7-142.4-6.2-176.2 2.9-22.8 6.1-80.6 44.1-80.6 44.1S18.4 59.4 6.3 88.4c0 0-5.2 3.1-6.2 10.9-.5 4 .7 10.1 2 15.3 1.4 5.6 6.1 9.8 11.8 10.7l27.5 4.3c-.4-1.5-.8-3-1-4.6-.2-1.4-.3-2.8-.3-4.2 0-18.3 14.9-33.2 33.2-33.2 18.3 0 33.3 14.9 33.3 33.2 0 1-.1 1.9-.1 2.8-.3 3.2-1 6.4-2.2 9.3l3.2.2 183-5c-.2-1-.4-2.1-.5-3.1-.2-1.4-.3-2.8-.3-4.2 0-18.3 14.9-33.2 33.2-33.2 18.3 0 33.2 14.9 33.2 33.2 0 1-.1 1.9-.1 2.8-.1.6-.2 1.2-.2 1.8l15.8-3.2c6.5-1.3 11.1-7.2 10.9-13.8l-1.2-40.3zM276 9.5l4.2 42-64.5 2.6V9.3c18.8-.5 40.3-.3 60.3.2zM113.1 57.1l-6.4.4c-1.8.1-3.3-1-3.9-2.6-.6-1.6 0-3.4 1.4-4.5 3.8-2.7 8.3-6 13.5-9.5v10.7c-3.2 2.6-4.6 5.5-4.6 5.5zm15.8-9.8c-.4 0-.7.1-1.1.2V34.3c13-8.2 27.8-16.4 40.4-20.6 5.8-1.9 16.3-3.1 29.4-3.8v44.9l-55.5 2.3c.1 0-1.9-10.3-13.2-9.8zm224.2-4.1c-1.9 3.4-5.5 5.5-9.3 5.7l-45.6 1.9-4.1-40.8c18.8.6 34.6 1.3 42.6 1.7 3.7.2 7 2.3 8.8 5.6l7.9 15c1.7 3.4 1.7 7.5-.3 10.9zm0 0"/></symbol><symbol id="phone-handle" viewBox="0 0 23.2 23.2"><style>.pst0{fill:#f2eee8}</style><path class="pst0" d="M18.3 23.2c-4.5 0-9.1-2.1-12.6-5.6l-.1-.1C1.9 13.9-.1 9.1 0 4.6v-.3L.2 4c.3-.4.6-.8 1-1.1C2.4 1.7 3.8.8 5.4.1c.2-.1.4-.1.7-.1.5 0 1.8.3 2.1 1.1.5 1.5 1.2 3.5 1.7 5.4.1.5 0 1.8-.7 2.3L7.4 9.9s0 .3.2.6c.7.9 1.5 1.9 2.4 2.8.9.9 1.8 1.7 2.7 2.3.2.1.4.2.6.2h.1l1.1-1.7c.5-.8 1.7-.8 1.9-.8h.4c2.3.5 3.7 1 5.5 1.8.8.4 1.3 1.8.9 2.7-.6 1.6-1.5 3-2.8 4.2-.3.3-.7.7-1.1 1l-.3.2h-.7zM2 5c0 3.9 1.9 8 5 11.2l.1.1c3.2 3.2 7.2 5 11.1 5 .2-.2.5-.4.7-.6 1-1 1.8-2.2 2.3-3.5 0 0-.1-.1-.1-.2-1.5-.7-2.8-1.1-4.9-1.6H16L15 17c-.6 1-2.3 1.2-3.5.3-1-.7-2-1.6-3-2.5-1-1-1.8-2-2.6-3-.4-.8-.6-1.6-.5-2.3.1-.6.4-1 .9-1.3l1.6-1v-.3c-.4-1.6-1-3.4-1.6-4.8 0-.1-.1-.1-.2-.1-1.3.5-2.5 1.3-3.5 2.3-.2.2-.4.4-.6.7z"/></symbol><symbol viewBox="0 0 40 48" id="porthole"><path d="M38 11.2l-.3-.6c-3-5.6-8.5-9.5-15-10.4h-.1c-.4 0-.7-.1-1.1-.1h-3c-.4 0-.7.1-1.1.1h-.1c-6.5.9-12 4.9-15 10.4l-.3.6C.7 13.9 0 16.8 0 20v9c.3 5.4 2.6 10.2 6.3 13.6l.2.2C10.1 46 14.8 48 20 48c11 0 20-9 20-20v-8c0-3.2-.7-6.1-2-8.8zM17.7 1.8h.1c.3 0 .6-.1.9-.1H21.3c.3 0 .6.1.9.1h.1c5.2.7 9.9 3.5 12.8 7.9H4.9c2.9-4.4 7.6-7.3 12.8-7.9zm-16 28.1L19.8 23l1-2v3.5l-4.7 5.2-2.7 3-7 7.7c-2.4-2.6-4-5.8-4.6-9.3 0-.2-.1-.5-.1-.7v-.1-.4zm16.1 3.7c0 1.3-1.1 2.4-2.4 2.4h-2.8l4-4.5c.7.5 1.2 1.2 1.2 2.1zm-10.2 8l3.6-3.9h4.3c2.2 0 4-1.8 4-4 0-1.3-.7-2.5-1.7-3.3l4.7-5.2v-6.7h-2.1l-1.7 3.4-17 6.5v-8.2c0-3.2.8-6.2 2.2-8.8h32.3c1.4 2.6 2.2 5.6 2.2 8.8v8c0 1.9-.3 3.8-.9 5.6-.4-2.3-2.4-4-4.7-4-2.4 0-4.4 1.7-4.7 4-2.3 0-4.1 1.9-4.1 4.2 0 2.4 2 4.4 4.4 4.4h3c-3.1 2.5-7.1 4-11.4 4-4.8 0-9.2-1.8-12.4-4.8zm22-7.2c0-1.7 1.4-3.2 3.2-3.2 1.8 0 3.2 1.4 3.2 3.2v.8l.6.2c.1 0 .2.1.3.1-.9 2-2.1 3.8-3.6 5.3H28.5c-1.5 0-2.8-1.3-2.8-2.8 0-1.5 1.3-2.8 2.8-2.8H29.1l.7-.2-.2-.6zm0 0"/><path d="M13.6 15.6c-.2-1.6-1.5-2.8-3.2-2.8-1.5 0-2.7 1-3.1 2.4h-.1c-1.8 0-3.2 1.4-3.2 3.2 0 1.8 1.4 3.2 3.2 3.2H12c1.8 0 3.2-1.4 3.2-3.2 0-1.2-.6-2.2-1.6-2.8zM12 20H7.2c-.9 0-1.6-.7-1.6-1.6 0-.9.7-1.6 1.6-1.6h1.6V16c0-.9.7-1.6 1.6-1.6.9 0 1.6.7 1.6 1.6v.7l.6.2c.6.2 1.1.8 1.1 1.5-.1.9-.8 1.6-1.7 1.6zm0 0"/></symbol><symbol id="rocket" viewBox="0 0 316.8 319"><style>.rst0{clip-path:url(#rSVGID_2_)}.rst1{clip-path:url(#rSVGID_4_)}</style><defs><path id="rSVGID_1_" d="M0 0h316.8v319H0z"/></defs><clipPath id="rSVGID_2_"><use xlink:href="#rSVGID_1_" overflow="visible"/></clipPath><path class="rst0" d="M315.1 7c-.3-2.7-2.5-4.9-5.2-5.2-24.6-3-50-.4-73.4 7.7-23.5 8-45.1 21.5-62.6 39l-40 40L76.2 96c-1.3.2-2.5.8-3.5 1.7L17 153.3c-1.6 1.6-2.1 3.9-1.5 6 .7 2.1 2.4 3.7 4.6 4.1l42.1 7.8 8.3 8.3-17.6 9.5c-1.7.9-2.8 2.5-3.1 4.4-.3 1.9.4 3.8 1.7 5.1l66.8 66.8c1.1 1.1 2.7 1.8 4.2 1.8.3 0 .6 0 .9-.1 1.9-.3 3.5-1.4 4.4-3.1l9.5-17.6 8.3 8.3 7.8 42.1c.4 2.2 2 4 4.1 4.6.6.2 1.2.3 1.8.3 1.6 0 3.1-.6 4.2-1.8l55.6-55.7c.9-.9 1.5-2.2 1.7-3.5l7.4-57.7 40-40c17.5-17.5 31-39.2 39.1-62.6 8.2-23.3 10.8-48.7 7.8-73.3zM63.2 159.2l-29.6-5.5 46.1-46.1 40.3-5.2-56.8 56.8zm57.9 92l-55.4-55.4 13.7-7.4 49.1 49.1-7.4 13.7zm88.2-14.1l-46.1 46.1-5.5-29.6 56.8-56.8-5.2 40.3zm50.5-102.6L151.2 243.2l-77.5-77.5L182.3 57c15.8-15.8 35.2-28.1 56.2-35.6 2.7 14 9.6 27 19.7 37.1 10.2 10.2 23.1 17 37.1 19.7-7.4 21.1-19.7 40.5-35.5 56.3zm39.3-67.7c-12.2-2.1-23.5-7.9-32.3-16.7-8.8-8.8-14.6-20.1-16.7-32.3 17.4-4.7 35.7-6.3 53.6-4.6 1.6 17.9 0 36.2-4.6 53.6zm0 0"/><path d="M176.5 88.9c-14.2 14.2-14.2 37.3 0 51.5 7.1 7.1 16.4 10.6 25.7 10.6s18.6-3.6 25.7-10.6c14.2-14.2 14.2-37.3 0-51.5-14.1-14.2-37.2-14.2-51.4 0zm43 43c-9.5 9.5-25 9.5-34.5 0s-9.5-25 0-34.5c4.8-4.8 11-7.1 17.3-7.1 6.2 0 12.5 2.4 17.3 7.1 9.4 9.5 9.4 25-.1 34.5zm0 0M78.1 239.9c-2.3-2.3-6.1-2.3-8.5 0l-51.5 51.5c-2.3 2.3-2.3 6.1 0 8.5 1.2 1.2 2.7 1.8 4.2 1.8s3.1-.6 4.2-1.8L78 248.4c2.5-2.4 2.5-6.2.1-8.5zm0 0M86 256.3l-23.2 23.2c-2.3 2.3-2.3 6.1 0 8.5 1.2 1.2 2.7 1.8 4.2 1.8s3.1-.6 4.2-1.8l23.2-23.2c2.3-2.3 2.3-6.1 0-8.5-2.2-2.4-6-2.4-8.4 0zm0 0M54.7 290.1c-2.5 0-4.8 1.6-5.7 4-.9 2.4-.1 5.2 1.9 6.7 2 1.6 5 1.7 7.1.2 2.3-1.6 3.2-4.6 2.1-7.2-.7-2.2-3-3.7-5.4-3.7zm0 0M60.3 293.8c.1.3-.2-.4 0 0zm0 0"/><defs><path id="rSVGID_3_" d="M0 0h316.8v319H0z"/></defs><clipPath id="rSVGID_4_"><use xlink:href="#rSVGID_3_" overflow="visible"/></clipPath><path class="rst1" d="M37.8 304.6l-3.2 3.2c-2.3 2.3-2.3 6.1 0 8.5 1.2 1.2 2.7 1.8 4.2 1.8s3.1-.6 4.2-1.8l3.2-3.2c2.3-2.3 2.3-6.1 0-8.5a5.8 5.8 0 0 0-8.4 0zm0 0M33.4 251.8c-2.3-2.3-6.1-2.3-8.5 0L1.8 274.9c-2.3 2.3-2.3 6.1 0 8.5 1.2 1.2 2.7 1.8 4.2 1.8s3.1-.6 4.2-1.8l23.2-23.2a5.8 5.8 0 0 0 0-8.4zm0 0"/><path d="M43 249.5c2.4-.6 4.3-2.7 4.5-5.2.3-2.4-1.1-4.8-3.3-5.9-2.3-1.2-5.2-.7-7 1.2-1.9 2-2.2 5.1-.7 7.5-.1-.1-.1-.1 0 0s.1.1 0 0c1.5 1.9 4.1 3 6.5 2.4zm0 0M58.5 235.1l3.2-3.2c2.3-2.3 2.3-6.1 0-8.5-2.3-2.3-6.1-2.3-8.5 0l-3.2 3.2c-2.3 2.3-2.3 6.1 0 8.5 1.2 1.2 2.7 1.8 4.2 1.8 1.6 0 3.2-.6 4.3-1.8zm0 0"/></symbol><symbol viewBox="0 0 20.3 20.3" id="scroll-top"><path d="M10.1 0C4.6 0 0 4.6 0 10.1s4.6 10.1 10.1 10.1c5.6 0 10.1-4.6 10.1-10.1S15.7 0 10.1 0zm3.7 13.1l-3.7-3.7-3.7 3.7L5.3 12l4.8-4.8 4.8 4.8-1.1 1.1z"/></symbol><symbol id="sedan" viewBox="0 0 384.8 139.6"><style>.tst0{clip-path:url(#tSVGID_2_)}</style><path d="M66.5 78.1c-15.9 0-28.8 12.9-28.8 28.8 0 1.2.1 2.4.2 3.6 1.8 14.2 13.9 25.1 28.5 25.1 15 0 27.4-11.6 28.6-26.3.1-.8.1-1.6.1-2.4.2-15.9-12.7-28.8-28.6-28.8zM52.1 96l5.9 5.9c-.5.8-.8 1.6-1.1 2.5h-8.3c.5-3.1 1.7-6 3.5-8.4zm-3.4 13.4H57c.2.9.6 1.7 1.1 2.5l-5.9 5.9c-1.9-2.4-3.1-5.3-3.5-8.4zm15.4 15.4c-3.1-.4-5.9-1.7-8.4-3.5l5.8-5.9c.8.5 1.6.8 2.5 1v8.4zm0-27.5c-.9.2-1.8.6-2.5 1.1l-5.9-5.9c2.4-1.8 5.3-3 8.4-3.5v8.3zM69 89c3.1.4 6 1.7 8.4 3.5l-5.8 5.9c-.8-.5-1.6-.8-2.5-1.1V89zm0 35.8v-8.3c.9-.2 1.7-.6 2.5-1l5.8 5.9c-2.3 1.7-5.2 2.9-8.3 3.4zm11.9-7l-5.9-5.9c.5-.8.8-1.6 1.1-2.5h8.3c-.5 3.1-1.6 6-3.5 8.4zm-4.8-13.4c-.2-.9-.6-1.7-1-2.5L81 96c1.8 2.4 3 5.3 3.4 8.4h-8.3zm0 0"/><defs><path id="tSVGID_1_" d="M0 0h384.8v139.6H0z"/></defs><clipPath id="tSVGID_2_"><use xlink:href="#tSVGID_1_" overflow="visible"/></clipPath><path class="tst0" d="M305.4 78.1c-15.9 0-28.8 12.9-28.8 28.8 0 1.2.1 2.4.3 3.6 1.8 14.2 13.8 25.1 28.5 25.1 15.1 0 27.4-11.6 28.6-26.3.1-.8.1-1.6.1-2.4.1-15.9-12.8-28.8-28.7-28.8zM291 96l5.8 5.9c-.4.8-.8 1.6-1 2.5h-8.3c.5-3.1 1.7-6 3.5-8.4zm-3.5 13.4h8.3c.2.9.6 1.7 1 2.5l-5.9 5.9c-1.7-2.4-3-5.3-3.4-8.4zm15.4 15.4c-3.1-.4-5.9-1.7-8.3-3.5l5.8-5.9c.8.5 1.6.8 2.5 1v8.4zm0-27.5c-.9.2-1.7.6-2.5 1.1l-5.9-5.9c2.4-1.8 5.3-3 8.4-3.5v8.3zm5-8.3c3.1.4 6 1.7 8.4 3.5l-5.9 5.8c-.8-.5-1.6-.8-2.5-1.1V89zm0 35.8v-8.3c.9-.2 1.7-.6 2.5-1l5.9 5.9c-2.5 1.7-5.3 2.9-8.4 3.4zm11.9-7l-5.9-5.9c.5-.8.8-1.6 1.1-2.5h8.3c-.5 3.1-1.7 6-3.5 8.4zm-4.8-13.4c-.2-.9-.6-1.7-1-2.5l5.9-5.9c1.8 2.4 3 5.3 3.4 8.4H315zm0 0"/><path class="tst0" d="M374.5 63.2V41.9c0-3.4-2.5-6.3-5.9-6.9-8.1-1.3-22.5-3.7-29-5.7-9.3-2.9-45.1-18-57.5-20.9-12.4-2.8-68.3-18.1-121.9.5-9 3.1-49.8 22.6-73.8 32.8-7 .3-76.9 14.9-80.6 24.8C2.1 76.5.9 81.3.2 83.9c-.7 2.5 0 14.7 5.2 23.1 5.3 3 15.5 5 27.3 6.4-.1-.7-.3-1.4-.4-2.1-.2-1.6-.3-3-.3-4.3 0-19.1 15.5-34.6 34.5-34.6 19.1 0 34.6 15.5 34.6 34.6 0 1-.1 2-.1 2.9-.2 2.1-.6 4.2-1.1 6.2h.1l171.5-3.5c-.1-.4-.2-.9-.2-1.3-.2-1.6-.3-3-.3-4.3 0-19 15.5-34.5 34.5-34.5 19.1 0 34.6 15.5 34.6 34.5v.2l.7-.1 29.3-5.5s11.2-6 11.2-22.4c-.1-11.1-6.8-16-6.8-16zM204.4 43l-64 2c1.2-9.6-4.5-11.8-4.5-11.8 25.4-23.1 76.8-23.9 76.8-23.9L204.4 43zm71.8-2.9l-58.4 2 5.3-32.7c30.1-.4 47.4 6.3 47.4 6.3l8.6 13.9-2.9 10.5zm32.9-.2h-16.2l-16.2-22.3c12.2 4.9 22 9.6 27.8 12.7 3.4 1.8 5.3 5.7 4.6 9.6zm0 0"/></symbol><symbol viewBox="0 0 156.1 186.4" id="sticker-badge"><path d="M156.1 76.1l-12-15.1 4.2-18.8-17.3-8.4-4.3-18.8h-19.3l-12-15L78 8.3 60.7 0l-12 15-19.3.1-4.3 18.8-17.4 8.3L12 61 0 76.1l12 15.1L7.7 110l17.3 8.4 4.2 18.8h11.6v49.2l36.8-20.2 36.8 20.2v-49.2h12.1l4.4-18.8 17.4-8.4-4.2-18.8 12-15.1zm-56.9 36.1H58.4v-16h11.2V57h-12V39.4H88v56.8h11.2v16zm0 0"/></symbol><symbol viewBox="0 0 355.6 409.6" id="sticker-flame"><path d="M100.1 409.6c-27.3-56.8-12.8-89.4 8.2-120 23-33.6 28.9-66.8 28.9-66.8s18.1 23.5 10.8 60.2c31.9-35.5 37.9-92.1 33.1-113.8 72.1 50.4 102.9 159.5 61.4 240.4 220.9-125 55-312.1 26.1-333.1 9.6 21.1 11.5 56.7-8 74.1C227.7 25.6 146.3 0 146.3 0c9.6 64.4-34.9 134.9-77.9 187.5-1.5-25.7-3.1-43.4-16.6-68-3 46.7-38.7 84.7-48.4 131.5-13.1 63.3 9.8 109.6 96.7 158.6zm0 0"/></symbol><symbol viewBox="0 0 246.7 256.5" id="sticker-percent"><path d="M106.4 99.6c9.9-10.7 15.3-25.1 15.3-40.5 0-29.3-21-59.1-61-59.1-18.6 0-34.3 6.4-45.4 18.5C5.4 29.3 0 43.6 0 59.1c0 29.3 20.9 59.1 60.8 59.1 18.7-.1 34.5-6.5 45.6-18.6zM60.8 27.5c22 0 32 16.4 32 31.6 0 8.3-2.8 15.9-7.9 21.6-5.7 6.3-13.9 9.6-23.8 9.6-22.5 0-32.8-16.4-32.8-31.6.1-15.6 10.1-31.2 32.5-31.2zm0 0M206.5 22.8c-3.6.1-8.6 2.3-11 5L15.2 228.2c-2.4 2.7-.7 6.5 2.9 6.5h23.6c3.6 0 8.6-2.2 11-4.9L231.9 29.4c2.4-2.7 2.3-7.1-3.7-7.1l-21.7.5zm0 0M186.8 140.7c-18.3 0-33.7 6.3-44.6 18.2-9.7 10.5-15 24.6-15 39.8 0 28.8 20.5 57.9 59.6 57.9 18.4 0 33.9-6.3 44.8-18.2 9.7-10.5 15.1-24.7 15.1-39.8 0-28.8-20.6-57.9-59.9-57.9zm.3 89.2c-21.9 0-31.9-16.4-31.9-31.7 0-8.3 2.8-16 7.8-21.7 5.6-6.3 13.8-9.7 23.7-9.7 21.9 0 31.9 16.4 31.9 31.7 0 8.3-2.8 16-7.8 21.7-5.6 6.4-13.8 9.7-23.7 9.7zm0 0"/></symbol><symbol viewBox="0 0 164.1 156.1" id="sticker-star"><path d="M82.1 0l25.3 51.4 56.7 8.2-41 40 9.7 56.5-50.7-26.7-50.8 26.7L41 99.6l-41-40 56.7-8.2z"/></symbol><symbol id="zoom" viewBox="0 0 50.6 50.6"><style>.yst0{fill:#1d1d1b}</style><path class="yst0" d="M20.6 41.2c5.1 0 9.8-1.9 13.4-5l13.9 13.9c.3.3.7.5 1.1.5.4 0 .8-.2 1.1-.5.3-.3.5-.7.5-1.1 0-.4-.2-.8-.5-1.1L36.2 34c3.1-3.6 5-8.3 5-13.4C41.2 9.2 31.9 0 20.6 0 9.2 0 0 9.2 0 20.6c0 11.3 9.2 20.6 20.6 20.6zm0-38C30.2 3.2 38 11 38 20.6 38 30.2 30.2 38 20.6 38 11 38 3.2 30.2 3.2 20.6 3.2 11 11 3.2 20.6 3.2zm0 0"/><path class="yst0" d="M14.4 22.2h4v4c0 .9.7 1.6 1.6 1.6.9 0 1.6-.7 1.6-1.6v-4h4c.9 0 1.6-.7 1.6-1.6 0-.9-.7-1.6-1.6-1.6h-4v-4c0-.9-.7-1.6-1.6-1.6-.9 0-1.6.7-1.6 1.6v4h-4c-.9 0-1.6.7-1.6 1.6 0 .9.7 1.6 1.6 1.6zm0 0"/></symbol></svg>